<mxfile host="app.diagrams.net" modified="2020-11-11T20:43:42.953Z" agent="5.0 (Windows)" etag="VWREpAAOqlyGa50SNAuZ" version="13.9.6" type="github" pages="2">
  <diagram id="s0Mmbe_96foXXKUcqOf8" name="sequence diagram masuk">
    <mxGraphModel dx="1038" dy="547" grid="1" gridSize="10" guides="1" tooltips="1" connect="1" arrows="1" fold="1" page="1" pageScale="1" pageWidth="850" pageHeight="1100" background="none" math="0" shadow="0">
      <root>
        <mxCell id="0" />
        <mxCell id="1" parent="0" />
        <mxCell id="u2yPSylJnqLLxZqIL412-1" value="" style="shape=umlLifeline;participant=umlActor;perimeter=lifelinePerimeter;whiteSpace=wrap;html=1;container=1;collapsible=0;recursiveResize=0;verticalAlign=top;spacingTop=36;outlineConnect=0;fillColor=#FAE5C7;strokeColor=#0F8B8D;fontColor=#143642;" parent="1" vertex="1">
          <mxGeometry x="170" y="80" width="20" height="300" as="geometry" />
        </mxCell>
        <mxCell id="u2yPSylJnqLLxZqIL412-10" value="" style="html=1;points=[];perimeter=orthogonalPerimeter;fillColor=#FAE5C7;strokeColor=#0F8B8D;fontColor=#143642;" parent="u2yPSylJnqLLxZqIL412-1" vertex="1">
          <mxGeometry x="5" y="60" width="10" height="170" as="geometry" />
        </mxCell>
        <mxCell id="u2yPSylJnqLLxZqIL412-2" value="Kegiatan 1" style="shape=umlLifeline;perimeter=lifelinePerimeter;whiteSpace=wrap;html=1;container=1;collapsible=0;recursiveResize=0;outlineConnect=0;fillColor=#FAE5C7;strokeColor=#0F8B8D;fontColor=#143642;" parent="1" vertex="1">
          <mxGeometry x="260" y="80" width="100" height="300" as="geometry" />
        </mxCell>
        <mxCell id="u2yPSylJnqLLxZqIL412-8" value="" style="html=1;points=[];perimeter=orthogonalPerimeter;fillColor=#FAE5C7;strokeColor=#0F8B8D;fontColor=#143642;" parent="u2yPSylJnqLLxZqIL412-2" vertex="1">
          <mxGeometry x="45" y="90" width="10" height="40" as="geometry" />
        </mxCell>
        <mxCell id="u2yPSylJnqLLxZqIL412-9" value="" style="html=1;points=[];perimeter=orthogonalPerimeter;fillColor=#FAE5C7;strokeColor=#0F8B8D;fontColor=#143642;" parent="u2yPSylJnqLLxZqIL412-2" vertex="1">
          <mxGeometry x="45" y="171" width="10" height="40" as="geometry" />
        </mxCell>
        <mxCell id="u2yPSylJnqLLxZqIL412-3" value="Kegiatan 2" style="shape=umlLifeline;perimeter=lifelinePerimeter;whiteSpace=wrap;html=1;container=1;collapsible=0;recursiveResize=0;outlineConnect=0;fillColor=#FAE5C7;strokeColor=#0F8B8D;fontColor=#143642;" parent="1" vertex="1">
          <mxGeometry x="420" y="80" width="100" height="300" as="geometry" />
        </mxCell>
        <mxCell id="u2yPSylJnqLLxZqIL412-6" value="&lt;div&gt;Kegiatan 3&lt;/div&gt;" style="shape=umlLifeline;perimeter=lifelinePerimeter;whiteSpace=wrap;html=1;container=1;collapsible=0;recursiveResize=0;outlineConnect=0;fillColor=#FAE5C7;strokeColor=#0F8B8D;fontColor=#143642;" parent="1" vertex="1">
          <mxGeometry x="580" y="80" width="100" height="300" as="geometry" />
        </mxCell>
        <mxCell id="u2yPSylJnqLLxZqIL412-12" value="" style="html=1;points=[];perimeter=orthogonalPerimeter;fillColor=#FAE5C7;strokeColor=#0F8B8D;fontColor=#143642;" parent="u2yPSylJnqLLxZqIL412-6" vertex="1">
          <mxGeometry x="45" y="80" width="10" height="40" as="geometry" />
        </mxCell>
        <mxCell id="u2yPSylJnqLLxZqIL412-13" value="" style="html=1;points=[];perimeter=orthogonalPerimeter;fillColor=#FAE5C7;strokeColor=#0F8B8D;fontColor=#143642;" parent="u2yPSylJnqLLxZqIL412-6" vertex="1">
          <mxGeometry x="45" y="150" width="10" height="40" as="geometry" />
        </mxCell>
        <mxCell id="u2yPSylJnqLLxZqIL412-14" value="" style="html=1;points=[];perimeter=orthogonalPerimeter;fillColor=#FAE5C7;strokeColor=#0F8B8D;fontColor=#143642;" parent="u2yPSylJnqLLxZqIL412-6" vertex="1">
          <mxGeometry x="45" y="220" width="10" height="40" as="geometry" />
        </mxCell>
        <mxCell id="u2yPSylJnqLLxZqIL412-11" value="" style="html=1;points=[];perimeter=orthogonalPerimeter;fillColor=#FAE5C7;strokeColor=#0F8B8D;fontColor=#143642;" parent="1" vertex="1">
          <mxGeometry x="465" y="140" width="10" height="220" as="geometry" />
        </mxCell>
        <mxCell id="u2yPSylJnqLLxZqIL412-15" value="&lt;div&gt;&lt;font style=&quot;font-size: 9px&quot;&gt;menerima data Pemindahan &lt;br&gt;&lt;/font&gt;&lt;/div&gt;&lt;div&gt;&lt;font style=&quot;font-size: 9px&quot;&gt;Lokasi Penumpukan (PLP) &lt;br&gt;&lt;/font&gt;&lt;/div&gt;&lt;div&gt;&lt;font style=&quot;font-size: 9px&quot;&gt;dari beacukai&lt;/font&gt;&lt;/div&gt;" style="endArrow=block;endFill=1;html=1;edgeStyle=orthogonalEdgeStyle;align=left;verticalAlign=top;labelBackgroundColor=none;strokeColor=#A8201A;fontColor=#143642;" parent="1" source="u2yPSylJnqLLxZqIL412-10" edge="1">
          <mxGeometry x="-1" relative="1" as="geometry">
            <mxPoint x="190" y="170" as="sourcePoint" />
            <mxPoint x="310" y="170" as="targetPoint" />
            <Array as="points">
              <mxPoint x="210" y="170" />
              <mxPoint x="210" y="170" />
            </Array>
          </mxGeometry>
        </mxCell>
        <mxCell id="u2yPSylJnqLLxZqIL412-16" value="1" style="edgeLabel;resizable=0;html=1;align=left;verticalAlign=bottom;labelBackgroundColor=#DAD2D8;fontColor=#143642;" parent="u2yPSylJnqLLxZqIL412-15" connectable="0" vertex="1">
          <mxGeometry x="-1" relative="1" as="geometry" />
        </mxCell>
        <mxCell id="u2yPSylJnqLLxZqIL412-19" value="&lt;div&gt;&lt;font style=&quot;font-size: 9px&quot;&gt;Mencatat data kontainer masuk&lt;/font&gt;&lt;/div&gt;&lt;div&gt;&lt;font style=&quot;font-size: 9px&quot;&gt;berdasarkan data PLP&lt;br&gt;&lt;/font&gt;&lt;/div&gt;" style="endArrow=block;endFill=1;html=1;edgeStyle=orthogonalEdgeStyle;align=left;verticalAlign=top;labelBackgroundColor=none;strokeColor=#A8201A;fontColor=#143642;" parent="1" edge="1">
          <mxGeometry x="-1" relative="1" as="geometry">
            <mxPoint x="314" y="210" as="sourcePoint" />
            <mxPoint x="469.5" y="210.02857142857135" as="targetPoint" />
            <Array as="points" />
          </mxGeometry>
        </mxCell>
        <mxCell id="u2yPSylJnqLLxZqIL412-20" value="3" style="edgeLabel;resizable=0;html=1;align=left;verticalAlign=bottom;labelBackgroundColor=#DAD2D8;fontColor=#143642;" parent="u2yPSylJnqLLxZqIL412-19" connectable="0" vertex="1">
          <mxGeometry x="-1" relative="1" as="geometry" />
        </mxCell>
        <mxCell id="u2yPSylJnqLLxZqIL412-23" value="&lt;font style=&quot;font-size: 9px&quot;&gt;&lt;span style=&quot;font-family: &amp;#34;calisto mt&amp;#34; , serif&quot; lang=&quot;EN-US&quot;&gt;Membuat SP2/Tila Cargo Masuk&lt;/span&gt;&lt;/font&gt;" style="endArrow=block;endFill=1;html=1;edgeStyle=orthogonalEdgeStyle;align=left;verticalAlign=top;labelBackgroundColor=none;strokeColor=#A8201A;fontColor=#143642;" parent="1" target="u2yPSylJnqLLxZqIL412-6" edge="1">
          <mxGeometry x="-1" relative="1" as="geometry">
            <mxPoint x="475" y="160.0285714285714" as="sourcePoint" />
            <mxPoint x="600" y="160" as="targetPoint" />
            <Array as="points">
              <mxPoint x="580" y="160" />
              <mxPoint x="580" y="160" />
            </Array>
          </mxGeometry>
        </mxCell>
        <mxCell id="u2yPSylJnqLLxZqIL412-24" value="5" style="edgeLabel;resizable=0;html=1;align=left;verticalAlign=bottom;labelBackgroundColor=#DAD2D8;fontColor=#143642;" parent="u2yPSylJnqLLxZqIL412-23" connectable="0" vertex="1">
          <mxGeometry x="-1" relative="1" as="geometry" />
        </mxCell>
        <mxCell id="u2yPSylJnqLLxZqIL412-25" value="&lt;font style=&quot;font-size: 9px&quot;&gt;&lt;span style=&quot;font-family: &amp;quot;calisto mt&amp;quot; , serif&quot; lang=&quot;EN-US&quot;&gt;Mendata kontainer penimbunan&lt;/span&gt;&lt;/font&gt;" style="endArrow=block;endFill=1;html=1;edgeStyle=orthogonalEdgeStyle;align=left;verticalAlign=top;labelBackgroundColor=none;strokeColor=#A8201A;fontColor=#143642;" parent="1" edge="1">
          <mxGeometry x="-1" relative="1" as="geometry">
            <mxPoint x="475" y="229.7185714285714" as="sourcePoint" />
            <mxPoint x="629.5" y="229.7185714285714" as="targetPoint" />
            <Array as="points">
              <mxPoint x="580" y="229.69" />
              <mxPoint x="580" y="229.69" />
            </Array>
          </mxGeometry>
        </mxCell>
        <mxCell id="u2yPSylJnqLLxZqIL412-26" value="6" style="edgeLabel;resizable=0;html=1;align=left;verticalAlign=bottom;labelBackgroundColor=#DAD2D8;fontColor=#143642;" parent="u2yPSylJnqLLxZqIL412-25" connectable="0" vertex="1">
          <mxGeometry x="-1" relative="1" as="geometry" />
        </mxCell>
        <mxCell id="u2yPSylJnqLLxZqIL412-27" value="&lt;font style=&quot;font-size: 9px&quot;&gt;&lt;span style=&quot;font-family: &amp;quot;calisto mt&amp;quot; , serif&quot; lang=&quot;EN-US&quot;&gt;Merekap data seluruh laporan&lt;/span&gt;&lt;/font&gt;" style="endArrow=block;endFill=1;html=1;edgeStyle=orthogonalEdgeStyle;align=left;verticalAlign=top;labelBackgroundColor=none;strokeColor=#A8201A;fontColor=#143642;" parent="1" edge="1">
          <mxGeometry x="-1" relative="1" as="geometry">
            <mxPoint x="475" y="299.9985714285714" as="sourcePoint" />
            <mxPoint x="629.5" y="299.9985714285714" as="targetPoint" />
            <Array as="points">
              <mxPoint x="580" y="299.97" />
              <mxPoint x="580" y="299.97" />
            </Array>
          </mxGeometry>
        </mxCell>
        <mxCell id="u2yPSylJnqLLxZqIL412-28" value="7" style="edgeLabel;resizable=0;html=1;align=left;verticalAlign=bottom;labelBackgroundColor=#DAD2D8;fontColor=#143642;" parent="u2yPSylJnqLLxZqIL412-27" connectable="0" vertex="1">
          <mxGeometry x="-1" relative="1" as="geometry" />
        </mxCell>
        <mxCell id="u2yPSylJnqLLxZqIL412-35" value="7" style="edgeLabel;resizable=0;html=1;align=left;verticalAlign=bottom;labelBackgroundColor=none;fontColor=#143642;" parent="u2yPSylJnqLLxZqIL412-27" connectable="0" vertex="1">
          <mxGeometry x="-1" relative="1" as="geometry" />
        </mxCell>
        <mxCell id="u2yPSylJnqLLxZqIL412-31" value="&lt;div&gt;&lt;font style=&quot;font-size: 9px&quot;&gt;menerima surat jalan lini satu &lt;br&gt;&lt;/font&gt;&lt;/div&gt;&lt;div&gt;&lt;font style=&quot;font-size: 9px&quot;&gt;dari supir truk&lt;/font&gt;&lt;/div&gt;" style="endArrow=block;endFill=1;html=1;edgeStyle=orthogonalEdgeStyle;align=left;verticalAlign=top;labelBackgroundColor=none;strokeColor=#A8201A;fontColor=#143642;" parent="1" edge="1">
          <mxGeometry x="-1" relative="1" as="geometry">
            <mxPoint x="185.0000000000001" y="251.02857142857147" as="sourcePoint" />
            <mxPoint x="310" y="251" as="targetPoint" />
            <Array as="points">
              <mxPoint x="210" y="251" />
              <mxPoint x="210" y="251" />
            </Array>
            <mxPoint as="offset" />
          </mxGeometry>
        </mxCell>
        <mxCell id="u2yPSylJnqLLxZqIL412-32" value="2" style="edgeLabel;resizable=0;html=1;align=left;verticalAlign=bottom;labelBackgroundColor=#DAD2D8;fontColor=#143642;" parent="u2yPSylJnqLLxZqIL412-31" connectable="0" vertex="1">
          <mxGeometry x="-1" relative="1" as="geometry" />
        </mxCell>
        <mxCell id="u2yPSylJnqLLxZqIL412-33" value="&lt;div&gt;&lt;font style=&quot;font-size: 9px&quot;&gt;Mencatat data kontainer masuk&lt;/font&gt;&lt;/div&gt;&lt;div&gt;&lt;font style=&quot;font-size: 9px&quot;&gt;berdasarkan surat jalan lini satu&lt;br&gt;&lt;/font&gt;&lt;/div&gt;" style="endArrow=block;endFill=1;html=1;edgeStyle=orthogonalEdgeStyle;align=left;verticalAlign=top;labelBackgroundColor=none;strokeColor=#A8201A;fontColor=#143642;" parent="1" edge="1">
          <mxGeometry x="-1" relative="1" as="geometry">
            <mxPoint x="313.5" y="291" as="sourcePoint" />
            <mxPoint x="469" y="291.02857142857135" as="targetPoint" />
            <Array as="points" />
          </mxGeometry>
        </mxCell>
        <mxCell id="u2yPSylJnqLLxZqIL412-34" value="4" style="edgeLabel;resizable=0;html=1;align=left;verticalAlign=bottom;labelBackgroundColor=#DAD2D8;fontColor=#143642;" parent="u2yPSylJnqLLxZqIL412-33" connectable="0" vertex="1">
          <mxGeometry x="-1" relative="1" as="geometry" />
        </mxCell>
      </root>
    </mxGraphModel>
  </diagram>
  <diagram id="yHClxJVfhAcmL0Wd4f6d" name="sequence diagram keluar">
    <mxGraphModel dx="494" dy="260" grid="1" gridSize="10" guides="1" tooltips="1" connect="1" arrows="1" fold="1" page="1" pageScale="1" pageWidth="850" pageHeight="1100" math="0" shadow="0">
      <root>
        <mxCell id="rzDEYPqwC-Ctk7Euo6rp-0" />
        <mxCell id="rzDEYPqwC-Ctk7Euo6rp-1" parent="rzDEYPqwC-Ctk7Euo6rp-0" />
        <mxCell id="7TtJ_oYwYsImzt8FH30y-0" value="" style="shape=umlLifeline;participant=umlActor;perimeter=lifelinePerimeter;whiteSpace=wrap;html=1;container=1;collapsible=0;recursiveResize=0;verticalAlign=top;spacingTop=36;outlineConnect=0;fillColor=#FAE5C7;strokeColor=#0F8B8D;fontColor=#143642;" parent="rzDEYPqwC-Ctk7Euo6rp-1" vertex="1">
          <mxGeometry x="170" y="80" width="20" height="300" as="geometry" />
        </mxCell>
        <mxCell id="7TtJ_oYwYsImzt8FH30y-1" value="" style="html=1;points=[];perimeter=orthogonalPerimeter;fillColor=#FAE5C7;strokeColor=#0F8B8D;fontColor=#143642;" parent="7TtJ_oYwYsImzt8FH30y-0" vertex="1">
          <mxGeometry x="5" y="60" width="10" height="80" as="geometry" />
        </mxCell>
        <mxCell id="7TtJ_oYwYsImzt8FH30y-2" value="Kegiatan 1" style="shape=umlLifeline;perimeter=lifelinePerimeter;whiteSpace=wrap;html=1;container=1;collapsible=0;recursiveResize=0;outlineConnect=0;fillColor=#FAE5C7;strokeColor=#0F8B8D;fontColor=#143642;" parent="rzDEYPqwC-Ctk7Euo6rp-1" vertex="1">
          <mxGeometry x="260" y="80" width="100" height="300" as="geometry" />
        </mxCell>
        <mxCell id="7TtJ_oYwYsImzt8FH30y-3" value="" style="html=1;points=[];perimeter=orthogonalPerimeter;fillColor=#FAE5C7;strokeColor=#0F8B8D;fontColor=#143642;" parent="7TtJ_oYwYsImzt8FH30y-2" vertex="1">
          <mxGeometry x="45" y="90" width="10" height="40" as="geometry" />
        </mxCell>
        <mxCell id="7TtJ_oYwYsImzt8FH30y-5" value="Kegiatan 2" style="shape=umlLifeline;perimeter=lifelinePerimeter;whiteSpace=wrap;html=1;container=1;collapsible=0;recursiveResize=0;outlineConnect=0;fillColor=#FAE5C7;strokeColor=#0F8B8D;fontColor=#143642;" parent="rzDEYPqwC-Ctk7Euo6rp-1" vertex="1">
          <mxGeometry x="420" y="80" width="100" height="300" as="geometry" />
        </mxCell>
        <mxCell id="7TtJ_oYwYsImzt8FH30y-6" value="&lt;div&gt;Kegiatan 3&lt;/div&gt;" style="shape=umlLifeline;perimeter=lifelinePerimeter;whiteSpace=wrap;html=1;container=1;collapsible=0;recursiveResize=0;outlineConnect=0;fillColor=#FAE5C7;strokeColor=#0F8B8D;fontColor=#143642;" parent="rzDEYPqwC-Ctk7Euo6rp-1" vertex="1">
          <mxGeometry x="580" y="80" width="100" height="300" as="geometry" />
        </mxCell>
        <mxCell id="7TtJ_oYwYsImzt8FH30y-7" value="" style="html=1;points=[];perimeter=orthogonalPerimeter;fillColor=#FAE5C7;strokeColor=#0F8B8D;fontColor=#143642;" parent="7TtJ_oYwYsImzt8FH30y-6" vertex="1">
          <mxGeometry x="45" y="80" width="10" height="40" as="geometry" />
        </mxCell>
        <mxCell id="7TtJ_oYwYsImzt8FH30y-8" value="" style="html=1;points=[];perimeter=orthogonalPerimeter;fillColor=#FAE5C7;strokeColor=#0F8B8D;fontColor=#143642;" parent="7TtJ_oYwYsImzt8FH30y-6" vertex="1">
          <mxGeometry x="45" y="150" width="10" height="40" as="geometry" />
        </mxCell>
        <mxCell id="7TtJ_oYwYsImzt8FH30y-9" value="" style="html=1;points=[];perimeter=orthogonalPerimeter;fillColor=#FAE5C7;strokeColor=#0F8B8D;fontColor=#143642;" parent="7TtJ_oYwYsImzt8FH30y-6" vertex="1">
          <mxGeometry x="45" y="220" width="10" height="40" as="geometry" />
        </mxCell>
        <mxCell id="7TtJ_oYwYsImzt8FH30y-10" value="" style="html=1;points=[];perimeter=orthogonalPerimeter;fillColor=#FAE5C7;strokeColor=#0F8B8D;fontColor=#143642;" parent="rzDEYPqwC-Ctk7Euo6rp-1" vertex="1">
          <mxGeometry x="465" y="140" width="10" height="220" as="geometry" />
        </mxCell>
        <mxCell id="7TtJ_oYwYsImzt8FH30y-11" value="&lt;div&gt;&lt;font style=&quot;font-size: 9px&quot;&gt;Dokumen Surat Pemberitahuan &lt;br&gt;&lt;/font&gt;&lt;/div&gt;&lt;div&gt;&lt;font style=&quot;font-size: 9px&quot;&gt;Pengeluaran Barang (SPPB) &lt;/font&gt;&lt;/div&gt;" style="endArrow=block;endFill=1;html=1;edgeStyle=orthogonalEdgeStyle;align=left;verticalAlign=top;labelBackgroundColor=none;strokeColor=#A8201A;fontColor=#143642;" parent="rzDEYPqwC-Ctk7Euo6rp-1" source="7TtJ_oYwYsImzt8FH30y-1" edge="1">
          <mxGeometry x="-1" relative="1" as="geometry">
            <mxPoint x="190" y="170" as="sourcePoint" />
            <mxPoint x="310" y="170" as="targetPoint" />
            <Array as="points">
              <mxPoint x="210" y="170" />
              <mxPoint x="210" y="170" />
            </Array>
          </mxGeometry>
        </mxCell>
        <mxCell id="7TtJ_oYwYsImzt8FH30y-12" value="1" style="edgeLabel;resizable=0;html=1;align=left;verticalAlign=bottom;labelBackgroundColor=#DAD2D8;fontColor=#143642;" parent="7TtJ_oYwYsImzt8FH30y-11" connectable="0" vertex="1">
          <mxGeometry x="-1" relative="1" as="geometry" />
        </mxCell>
        <mxCell id="7TtJ_oYwYsImzt8FH30y-13" value="&lt;div&gt;&lt;font style=&quot;font-size: 9px&quot;&gt;Mencatat data kontainer keluar&lt;/font&gt;&lt;/div&gt;&lt;div&gt;&lt;font style=&quot;font-size: 9px&quot;&gt;berdasarkan data SPPB&lt;br&gt;&lt;/font&gt;&lt;/div&gt;" style="endArrow=block;endFill=1;html=1;edgeStyle=orthogonalEdgeStyle;align=left;verticalAlign=top;labelBackgroundColor=none;strokeColor=#A8201A;fontColor=#143642;" parent="rzDEYPqwC-Ctk7Euo6rp-1" edge="1">
          <mxGeometry x="-1" relative="1" as="geometry">
            <mxPoint x="314" y="210" as="sourcePoint" />
            <mxPoint x="469.5" y="210.02857142857135" as="targetPoint" />
            <Array as="points" />
          </mxGeometry>
        </mxCell>
        <mxCell id="7TtJ_oYwYsImzt8FH30y-14" value="2" style="edgeLabel;resizable=0;html=1;align=left;verticalAlign=bottom;labelBackgroundColor=#DAD2D8;fontColor=#143642;" parent="7TtJ_oYwYsImzt8FH30y-13" connectable="0" vertex="1">
          <mxGeometry x="-1" relative="1" as="geometry" />
        </mxCell>
        <mxCell id="7TtJ_oYwYsImzt8FH30y-15" value="&lt;font style=&quot;font-size: 9px&quot;&gt;&lt;span style=&quot;font-family: &amp;#34;calisto mt&amp;#34; , serif&quot; lang=&quot;EN-US&quot;&gt;Membuat SP2/Tila Cargo Keluar&lt;/span&gt;&lt;/font&gt;" style="endArrow=block;endFill=1;html=1;edgeStyle=orthogonalEdgeStyle;align=left;verticalAlign=top;labelBackgroundColor=none;strokeColor=#A8201A;fontColor=#143642;" parent="rzDEYPqwC-Ctk7Euo6rp-1" target="7TtJ_oYwYsImzt8FH30y-6" edge="1">
          <mxGeometry x="-1" relative="1" as="geometry">
            <mxPoint x="475" y="160.02857142857147" as="sourcePoint" />
            <mxPoint x="600" y="160" as="targetPoint" />
            <Array as="points">
              <mxPoint x="580" y="160" />
              <mxPoint x="580" y="160" />
            </Array>
          </mxGeometry>
        </mxCell>
        <mxCell id="7TtJ_oYwYsImzt8FH30y-16" value="3" style="edgeLabel;resizable=0;html=1;align=left;verticalAlign=bottom;labelBackgroundColor=#DAD2D8;fontColor=#143642;" parent="7TtJ_oYwYsImzt8FH30y-15" connectable="0" vertex="1">
          <mxGeometry x="-1" relative="1" as="geometry" />
        </mxCell>
        <mxCell id="7TtJ_oYwYsImzt8FH30y-17" value="&lt;font style=&quot;font-size: 9px&quot;&gt;&lt;span style=&quot;font-family: &amp;quot;calisto mt&amp;quot; , serif&quot; lang=&quot;EN-US&quot;&gt;Mendata kontainer penimbunan&lt;/span&gt;&lt;/font&gt;" style="endArrow=block;endFill=1;html=1;edgeStyle=orthogonalEdgeStyle;align=left;verticalAlign=top;labelBackgroundColor=none;strokeColor=#A8201A;fontColor=#143642;" parent="rzDEYPqwC-Ctk7Euo6rp-1" edge="1">
          <mxGeometry x="-1" relative="1" as="geometry">
            <mxPoint x="475" y="229.7185714285714" as="sourcePoint" />
            <mxPoint x="629.5" y="229.7185714285714" as="targetPoint" />
            <Array as="points">
              <mxPoint x="580" y="229.69" />
              <mxPoint x="580" y="229.69" />
            </Array>
          </mxGeometry>
        </mxCell>
        <mxCell id="7TtJ_oYwYsImzt8FH30y-18" value="4" style="edgeLabel;resizable=0;html=1;align=left;verticalAlign=bottom;labelBackgroundColor=#DAD2D8;fontColor=#143642;" parent="7TtJ_oYwYsImzt8FH30y-17" connectable="0" vertex="1">
          <mxGeometry x="-1" relative="1" as="geometry" />
        </mxCell>
        <mxCell id="7TtJ_oYwYsImzt8FH30y-19" value="&lt;font style=&quot;font-size: 9px&quot;&gt;&lt;span style=&quot;font-family: &amp;quot;calisto mt&amp;quot; , serif&quot; lang=&quot;EN-US&quot;&gt;Merekap data seluruh laporan&lt;/span&gt;&lt;/font&gt;" style="endArrow=block;endFill=1;html=1;edgeStyle=orthogonalEdgeStyle;align=left;verticalAlign=top;labelBackgroundColor=none;strokeColor=#A8201A;fontColor=#143642;" parent="rzDEYPqwC-Ctk7Euo6rp-1" edge="1">
          <mxGeometry x="-1" relative="1" as="geometry">
            <mxPoint x="475" y="299.9985714285714" as="sourcePoint" />
            <mxPoint x="629.5" y="299.9985714285714" as="targetPoint" />
            <Array as="points">
              <mxPoint x="580" y="299.97" />
              <mxPoint x="580" y="299.97" />
            </Array>
          </mxGeometry>
        </mxCell>
        <mxCell id="7TtJ_oYwYsImzt8FH30y-20" value="5" style="edgeLabel;resizable=0;html=1;align=left;verticalAlign=bottom;labelBackgroundColor=#DAD2D8;fontColor=#143642;" parent="7TtJ_oYwYsImzt8FH30y-19" connectable="0" vertex="1">
          <mxGeometry x="-1" relative="1" as="geometry">
            <mxPoint as="offset" />
          </mxGeometry>
        </mxCell>
      </root>
    </mxGraphModel>
  </diagram>
</mxfile>
